<mxfile host="app.diagrams.net" agent="Mozilla/5.0 (Windows NT 10.0; Win64; x64; rv:139.0) Gecko/20100101 Firefox/139.0" version="27.1.3">
  <diagram id="jc3j9y7dXNsbAhvHKm1Y" name="AWS Lab Topology">
    <mxGraphModel dx="399" dy="742" grid="1" gridSize="10" guides="1" tooltips="1" connect="1" arrows="1" fold="1" page="1" pageScale="1" pageWidth="827" pageHeight="1169" math="0" shadow="0">
      <root>
        <mxCell id="0" />
        <mxCell id="1" parent="0" />
        <mxCell id="pv6UNuCFkcfjKkFN37WT-41" value="&lt;div&gt;VPC&lt;/div&gt;10.0.0.0/16" style="points=[[0,0],[0.25,0],[0.5,0],[0.75,0],[1,0],[1,0.25],[1,0.5],[1,0.75],[1,1],[0.75,1],[0.5,1],[0.25,1],[0,1],[0,0.75],[0,0.5],[0,0.25]];outlineConnect=0;gradientColor=none;html=1;whiteSpace=wrap;fontSize=12;fontStyle=0;container=1;pointerEvents=0;collapsible=0;recursiveResize=0;shape=mxgraph.aws4.group;grIcon=mxgraph.aws4.group_vpc2;strokeColor=#8C4FFF;fillColor=none;verticalAlign=top;align=left;spacingLeft=30;fontColor=#AAB7B8;dashed=0;" vertex="1" parent="1">
          <mxGeometry x="950" y="240" width="600" height="390" as="geometry" />
        </mxCell>
        <mxCell id="pv6UNuCFkcfjKkFN37WT-53" value="Region" style="points=[[0,0],[0.25,0],[0.5,0],[0.75,0],[1,0],[1,0.25],[1,0.5],[1,0.75],[1,1],[0.75,1],[0.5,1],[0.25,1],[0,1],[0,0.75],[0,0.5],[0,0.25]];outlineConnect=0;gradientColor=none;html=1;whiteSpace=wrap;fontSize=12;fontStyle=0;container=1;pointerEvents=0;collapsible=0;recursiveResize=0;shape=mxgraph.aws4.group;grIcon=mxgraph.aws4.group_region;strokeColor=#00A4A6;fillColor=none;verticalAlign=top;align=left;spacingLeft=30;fontColor=#147EBA;dashed=1;" vertex="1" parent="1">
          <mxGeometry x="910" y="200" width="670" height="450" as="geometry" />
        </mxCell>
        <mxCell id="pv6UNuCFkcfjKkFN37WT-37" value="Internet Gateway" style="sketch=0;outlineConnect=0;fontColor=#232F3E;gradientColor=none;fillColor=#8C4FFF;strokeColor=none;dashed=0;verticalLabelPosition=bottom;verticalAlign=top;align=center;html=1;fontSize=12;fontStyle=0;aspect=fixed;pointerEvents=1;shape=mxgraph.aws4.internet_gateway;labelBackgroundColor=default;labelPosition=center;" vertex="1" parent="pv6UNuCFkcfjKkFN37WT-53">
          <mxGeometry x="80" y="269" width="40" height="40" as="geometry" />
        </mxCell>
        <mxCell id="pv6UNuCFkcfjKkFN37WT-42" value="&lt;div&gt;Public subnet&lt;/div&gt;&lt;div&gt;10.0.0.0/24&lt;/div&gt;" style="points=[[0,0],[0.25,0],[0.5,0],[0.75,0],[1,0],[1,0.25],[1,0.5],[1,0.75],[1,1],[0.75,1],[0.5,1],[0.25,1],[0,1],[0,0.75],[0,0.5],[0,0.25]];outlineConnect=0;gradientColor=none;html=1;whiteSpace=wrap;fontSize=12;fontStyle=0;container=1;pointerEvents=0;collapsible=0;recursiveResize=0;shape=mxgraph.aws4.group;grIcon=mxgraph.aws4.group_security_group;grStroke=0;strokeColor=#7AA116;fillColor=#F2F6E8;verticalAlign=top;align=left;spacingLeft=30;fontColor=#248814;dashed=0;" vertex="1" parent="pv6UNuCFkcfjKkFN37WT-53">
          <mxGeometry x="160" y="70" width="180" height="330" as="geometry" />
        </mxCell>
        <mxCell id="pv6UNuCFkcfjKkFN37WT-38" value="NAT Gateway" style="sketch=0;outlineConnect=0;fontColor=#232F3E;gradientColor=none;fillColor=#8C4FFF;strokeColor=none;dashed=0;verticalLabelPosition=bottom;verticalAlign=top;align=center;html=1;fontSize=12;fontStyle=0;aspect=fixed;pointerEvents=1;shape=mxgraph.aws4.nat_gateway;" vertex="1" parent="pv6UNuCFkcfjKkFN37WT-42">
          <mxGeometry x="70" y="72" width="38" height="38" as="geometry" />
        </mxCell>
        <mxCell id="pv6UNuCFkcfjKkFN37WT-36" value="&lt;div&gt;Guacamole EC2&lt;/div&gt;&lt;div&gt;10.0.0.10&lt;/div&gt;" style="sketch=0;points=[[0,0,0],[0.25,0,0],[0.5,0,0],[0.75,0,0],[1,0,0],[0,1,0],[0.25,1,0],[0.5,1,0],[0.75,1,0],[1,1,0],[0,0.25,0],[0,0.5,0],[0,0.75,0],[1,0.25,0],[1,0.5,0],[1,0.75,0]];outlineConnect=0;fontColor=#232F3E;fillColor=#ED7100;strokeColor=#ffffff;dashed=0;verticalLabelPosition=bottom;verticalAlign=top;align=center;html=1;fontSize=12;fontStyle=0;aspect=fixed;shape=mxgraph.aws4.resourceIcon;resIcon=mxgraph.aws4.ec2;" vertex="1" parent="pv6UNuCFkcfjKkFN37WT-42">
          <mxGeometry x="71" y="200" width="38" height="38" as="geometry" />
        </mxCell>
        <mxCell id="pv6UNuCFkcfjKkFN37WT-59" style="edgeStyle=orthogonalEdgeStyle;rounded=0;orthogonalLoop=1;jettySize=auto;html=1;" edge="1" parent="pv6UNuCFkcfjKkFN37WT-53" source="pv6UNuCFkcfjKkFN37WT-37" target="pv6UNuCFkcfjKkFN37WT-36">
          <mxGeometry relative="1" as="geometry" />
        </mxCell>
        <mxCell id="pv6UNuCFkcfjKkFN37WT-43" value="&lt;div&gt;Private subnet&lt;/div&gt;&lt;div&gt;10.0.1.0/24&lt;/div&gt;" style="points=[[0,0],[0.25,0],[0.5,0],[0.75,0],[1,0],[1,0.25],[1,0.5],[1,0.75],[1,1],[0.75,1],[0.5,1],[0.25,1],[0,1],[0,0.75],[0,0.5],[0,0.25]];outlineConnect=0;gradientColor=none;html=1;whiteSpace=wrap;fontSize=12;fontStyle=0;container=1;pointerEvents=0;collapsible=0;recursiveResize=0;shape=mxgraph.aws4.group;grIcon=mxgraph.aws4.group_security_group;grStroke=0;strokeColor=#00A4A6;fillColor=#E6F6F7;verticalAlign=top;align=left;spacingLeft=30;fontColor=#147EBA;dashed=0;" vertex="1" parent="pv6UNuCFkcfjKkFN37WT-53">
          <mxGeometry x="380" y="70" width="180" height="330" as="geometry" />
        </mxCell>
        <mxCell id="pv6UNuCFkcfjKkFN37WT-44" value="&lt;div&gt;User EC2 #N&lt;/div&gt;&lt;div&gt;10.0.1.x&lt;/div&gt;" style="sketch=0;points=[[0,0,0],[0.25,0,0],[0.5,0,0],[0.75,0,0],[1,0,0],[0,1,0],[0.25,1,0],[0.5,1,0],[0.75,1,0],[1,1,0],[0,0.25,0],[0,0.5,0],[0,0.75,0],[1,0.25,0],[1,0.5,0],[1,0.75,0]];outlineConnect=0;fontColor=#232F3E;fillColor=#ED7100;strokeColor=#ffffff;dashed=0;verticalLabelPosition=bottom;verticalAlign=top;align=center;html=1;fontSize=12;fontStyle=0;aspect=fixed;shape=mxgraph.aws4.resourceIcon;resIcon=mxgraph.aws4.ec2;labelPosition=center;" vertex="1" parent="pv6UNuCFkcfjKkFN37WT-43">
          <mxGeometry x="71" y="199" width="38" height="38" as="geometry" />
        </mxCell>
        <mxCell id="pv6UNuCFkcfjKkFN37WT-61" style="edgeStyle=orthogonalEdgeStyle;rounded=0;orthogonalLoop=1;jettySize=auto;html=1;dashed=1;" edge="1" parent="pv6UNuCFkcfjKkFN37WT-53" source="pv6UNuCFkcfjKkFN37WT-44" target="pv6UNuCFkcfjKkFN37WT-38">
          <mxGeometry relative="1" as="geometry">
            <Array as="points">
              <mxPoint x="470" y="161" />
            </Array>
          </mxGeometry>
        </mxCell>
        <mxCell id="pv6UNuCFkcfjKkFN37WT-62" style="edgeStyle=orthogonalEdgeStyle;rounded=0;orthogonalLoop=1;jettySize=auto;html=1;dashed=1;" edge="1" parent="pv6UNuCFkcfjKkFN37WT-53" source="pv6UNuCFkcfjKkFN37WT-38" target="pv6UNuCFkcfjKkFN37WT-37">
          <mxGeometry relative="1" as="geometry" />
        </mxCell>
        <mxCell id="pv6UNuCFkcfjKkFN37WT-64" style="edgeStyle=orthogonalEdgeStyle;rounded=0;orthogonalLoop=1;jettySize=auto;html=1;" edge="1" parent="pv6UNuCFkcfjKkFN37WT-53" source="pv6UNuCFkcfjKkFN37WT-36" target="pv6UNuCFkcfjKkFN37WT-44">
          <mxGeometry relative="1" as="geometry" />
        </mxCell>
        <mxCell id="pv6UNuCFkcfjKkFN37WT-63" style="edgeStyle=orthogonalEdgeStyle;rounded=0;orthogonalLoop=1;jettySize=auto;html=1;startArrow=classic;startFill=1;" edge="1" parent="1" source="pv6UNuCFkcfjKkFN37WT-54" target="pv6UNuCFkcfjKkFN37WT-37">
          <mxGeometry relative="1" as="geometry" />
        </mxCell>
        <mxCell id="pv6UNuCFkcfjKkFN37WT-54" value="&lt;div&gt;Users&lt;/div&gt;&lt;div&gt;&lt;br&gt;&lt;/div&gt;" style="sketch=0;outlineConnect=0;fontColor=#232F3E;gradientColor=none;fillColor=#232F3D;strokeColor=none;dashed=0;verticalLabelPosition=top;verticalAlign=bottom;align=center;html=1;fontSize=12;fontStyle=0;aspect=fixed;pointerEvents=1;shape=mxgraph.aws4.users;labelPosition=center;" vertex="1" parent="1">
          <mxGeometry x="850" y="470" width="38" height="38" as="geometry" />
        </mxCell>
      </root>
    </mxGraphModel>
  </diagram>
</mxfile>
